<?xml version="1.0" standalone="no"?>
<!DOCTYPE svg PUBLIC "-//W3C//DTD SVG 20010904//EN"
 "http://www.w3.org/TR/2001/REC-SVG-20010904/DTD/svg10.dtd">
<svg version="1.0" xmlns="http://www.w3.org/2000/svg"
 width="1280.000000pt" height="496.000000pt" viewBox="0 0 1280.000000 496.000000"
 preserveAspectRatio="xMidYMid meet">

<g transform="translate(0.000000,496.000000) scale(0.100000,-0.100000)"
fill="#000000" stroke="none">
<path d="M12340 2485 l-105 -32 -3 -544 c-1 -302 2 -593 7 -655 17 -188 61
-268 179 -326 63 -31 72 -33 172 -32 58 0 124 6 148 13 l42 12 0 69 c0 102 0
102 -84 94 -132 -12 -202 31 -225 136 -7 32 -11 194 -11 435 l0 385 170 0 170
0 0 85 0 85 -170 0 -170 0 0 155 c0 85 -3 155 -7 154 -5 -1 -55 -16 -113 -34z"/>
<path d="M6458 2224 c-183 -33 -336 -131 -434 -279 -134 -202 -148 -517 -31
-740 44 -84 164 -202 247 -242 128 -62 280 -84 434 -64 89 12 246 56 246 69 0
4 -7 43 -17 87 l-16 80 -71 -24 c-52 -18 -100 -25 -182 -29 -170 -7 -263 27
-362 131 -89 95 -122 189 -122 353 0 169 44 279 150 378 66 61 137 92 239 107
77 11 211 -3 284 -31 28 -11 52 -18 54 -16 8 8 50 162 46 168 -6 11 -129 46
-203 58 -86 13 -168 11 -262 -6z"/>
<path d="M7471 2225 c-136 -31 -240 -108 -290 -215 -22 -46 -26 -69 -26 -145
0 -76 4 -98 25 -138 47 -93 137 -159 313 -231 177 -72 237 -132 237 -236 0
-146 -147 -225 -346 -186 -47 9 -115 30 -152 46 -36 17 -66 29 -66 28 -1 -2
-13 -40 -28 -86 l-26 -82 26 -14 c46 -23 154 -55 222 -66 251 -39 483 54 562
227 18 40 22 67 23 153 0 95 -3 110 -27 156 -52 99 -143 164 -341 245 -158 64
-211 121 -205 220 7 99 74 157 193 166 68 6 174 -16 236 -48 23 -11 45 -17 49
-12 4 4 18 39 30 76 27 84 26 85 -83 122 -98 33 -234 41 -326 20z"/>
<path d="M9255 2230 c-265 -39 -468 -208 -545 -455 -31 -100 -39 -284 -15
-391 52 -242 210 -409 445 -471 79 -21 277 -23 365 -4 52 11 176 49 182 55 4
3 -34 156 -40 162 -2 3 -33 -5 -68 -17 -81 -27 -246 -37 -328 -19 -199 44
-324 205 -338 435 -16 283 136 491 386 525 88 12 204 0 282 -29 29 -12 56 -17
60 -13 12 12 50 152 44 161 -9 15 -124 50 -200 61 -79 11 -156 11 -230 0z"/>
<path d="M10305 2230 c-79 -13 -188 -46 -247 -76 -27 -13 -48 -26 -48 -28 0
-3 33 -102 45 -133 3 -9 23 -4 68 17 90 41 213 64 307 57 167 -11 245 -90 265
-269 l6 -58 -63 0 c-35 0 -103 -5 -153 -11 -275 -34 -450 -129 -528 -288 -30
-62 -32 -72 -32 -176 0 -101 2 -115 28 -165 92 -179 307 -254 521 -180 75 25
119 53 184 114 29 27 54 47 56 45 2 -2 8 -38 12 -79 l9 -75 104 -3 104 -3 -8
43 c-4 24 -11 239 -14 478 -7 416 -8 438 -30 500 -47 137 -141 231 -271 271
-76 23 -226 32 -315 19z m393 -802 c-3 -145 -4 -155 -30 -199 -34 -58 -97
-115 -156 -141 -69 -31 -201 -31 -259 0 -66 35 -97 90 -101 178 -5 90 9 135
59 189 72 79 213 122 397 124 l94 1 -4 -152z"/>
<path d="M11809 2226 c-103 -28 -192 -105 -251 -218 l-33 -63 -2 40 c-2 22 -5
82 -9 133 l-6 92 -100 0 -101 0 6 -67 c4 -38 7 -328 7 -645 l0 -578 115 0 115
0 0 374 c0 212 4 397 10 427 15 78 61 168 111 217 56 55 128 82 219 82 l70 0
0 104 c0 85 -3 105 -16 110 -24 9 -84 6 -135 -8z"/>
<path d="M8286 1170 c-64 -20 -111 -90 -103 -155 15 -140 197 -177 266 -55 27
49 27 99 -1 140 -43 62 -102 88 -162 70z"/>
</g>
</svg>
